# xmcd
#
# Track frame offsets:
#	150
#	13825
#	30614
#	43411
#	60117
#	81239
#	98422
#	114306
#	125983
#	138280
#	157835
#	177607
#
# Disc length: 2579 seconds
#
# Revision: 1
# Processed by: cddbd v1.5.1PL0 Copyright (c) Steve Scherf et al.
# Submitted via: EasyCDDAExtractor 7.1.0.1
#
DISCID=980a110c
DTITLE=Doug Bartlett - Mama, Will You Call My Daddy?
DYEAR=2002
DGENRE=Bluegrass
TTITLE0=Greenway Creek
TTITLE1=Mama, Will You Call My Daddy?
TTITLE2=Snowflake Reel
TTITLE3=Lonely Cold December
TTITLE4=Somewhere My Love
TTITLE5=If You Don't Believe in Love
TTITLE6=Washington Co. Break Down
TTITLE7=Down in Caroline
TTITLE8=Red Apple Rag
TTITLE9=Freed From Death
TTITLE10=Plant Some Flowers
TTITLE11=Orange Blossom Special
EXTD=
EXTT0=
EXTT1=
EXTT2=
EXTT3=
EXTT4=
EXTT5=
EXTT6=
EXTT7=
EXTT8=
EXTT9=
EXTT10=
EXTT11=
PLAYORDER=
